<svg width="20" height="15" viewBox="0 0 20 15" fill="none" xmlns="http://www.w3.org/2000/svg">
<path d="M18.6396 0.299805L1.35965 0.299805C0.962003 0.299805 0.639648 0.62216 0.639648 1.0198L0.639648 13.2598C0.639648 14.0551 1.28436 14.6998 2.07965 14.6998L17.9196 14.6998C18.7149 14.6998 19.3596 14.0551 19.3596 13.2598L19.3596 1.0198C19.3596 0.62216 19.0373 0.299805 18.6396 0.299805ZM9.99965 7.9633L3.21095 1.7398L16.7883 1.7398L9.99965 7.9633ZM7.36355 7.4998L2.07965 12.3427L2.07965 2.6569L7.36355 7.4998ZM8.42915 8.47631L9.50915 9.4708C9.78453 9.7236 10.2076 9.7236 10.4829 9.4708L11.5629 8.47631L16.7829 13.2598L3.21095 13.2598L8.42915 8.47631ZM12.6357 7.4998L17.9196 2.656L17.9196 12.3436L12.6357 7.4998Z" fill="#171A1F"/>
</svg>
