<svg width="23" height="23" viewBox="0 0 23 23" fill="none" xmlns="http://www.w3.org/2000/svg">
<path d="M12.4583 2.875C12.7026 2.87527 12.9375 2.9688 13.1151 3.13648C13.2928 3.30416 13.3996 3.53333 13.414 3.77717C13.4283 4.02101 13.3489 4.26111 13.1922 4.44842C13.0354 4.63573 12.813 4.75611 12.5705 4.78496L12.4583 4.79167H4.79167V18.2083H18.2083V10.5417C18.2086 10.2974 18.3021 10.0625 18.4698 9.88485C18.6375 9.70724 18.8667 9.60036 19.1105 9.58604C19.3543 9.57173 19.5944 9.65106 19.7818 9.80784C19.9691 9.96461 20.0894 10.187 20.1183 10.4295L20.125 10.5417V18.2083C20.1252 18.6919 19.9425 19.1576 19.6137 19.5122C19.2849 19.8668 18.8343 20.0839 18.3521 20.1202L18.2083 20.125H4.79167C4.30811 20.1252 3.84237 19.9425 3.48781 19.6137C3.13324 19.2849 2.91606 18.8343 2.87979 18.3521L2.875 18.2083V4.79167C2.87485 4.30811 3.05747 3.84237 3.38627 3.48781C3.71506 3.13324 4.16573 2.91606 4.64792 2.87979L4.79167 2.875H12.4583ZM18.4412 3.20371C18.6137 3.03183 18.8451 2.93205 19.0885 2.92461C19.3318 2.91718 19.5689 3.00266 19.7515 3.1637C19.9341 3.32473 20.0486 3.54924 20.0717 3.79162C20.0948 4.03401 20.0248 4.27609 19.8758 4.46871L19.7963 4.55975L10.3088 14.0463C10.1363 14.2182 9.90492 14.318 9.66155 14.3254C9.41818 14.3328 9.18111 14.2473 8.99848 14.0863C8.81586 13.9253 8.70137 13.7008 8.67828 13.4584C8.65519 13.216 8.72523 12.9739 8.87417 12.7813L8.95371 12.6912L18.4412 3.20371Z" fill="#7BA2DB"/>
</svg>
