<svg width="59" height="59" viewBox="0 0 59 59" fill="none" xmlns="http://www.w3.org/2000/svg">
<path d="M26.7773 27.7071C26.7773 26.2032 27.9965 24.984 29.5004 24.984C31.0043 24.984 32.2235 26.2032 32.2235 27.7071C32.2235 29.211 31.0043 30.4301 29.5004 30.4301C27.9965 30.4301 26.7773 29.211 26.7773 27.7071ZM39.485 30.4301C40.9889 30.4301 42.2081 29.211 42.2081 27.7071C42.2081 26.2032 40.9889 24.984 39.485 24.984C37.9811 24.984 36.7619 26.2032 36.7619 27.7071C36.7619 29.211 37.9811 30.4301 39.485 30.4301ZM53.1004 13.184L53.1004 42.2301C53.1004 44.2354 51.4748 45.8609 49.4696 45.8609L35.9745 45.8609L32.607 51.3729C31.9477 52.4619 30.7662 53.126 29.4931 53.1232C28.2201 53.1204 27.0415 52.4511 26.387 51.3593L23.0263 45.8609L9.53116 45.8609C7.52594 45.8609 5.90039 44.2354 5.90039 42.2301L5.90039 13.184C5.90039 11.1788 7.52594 9.55322 9.53116 9.55322L49.4696 9.55322C51.4748 9.55322 53.1004 11.1788 53.1004 13.184ZM49.4696 13.184L9.53116 13.184L9.53116 42.2301L23.0263 42.2301C24.2973 42.2335 25.4751 42.898 26.1351 43.9843L29.5004 49.4917L32.8634 43.9729C33.5263 42.89 34.7048 42.2298 35.9745 42.2301L49.4696 42.2301L49.4696 13.184ZM19.5158 30.4301C21.0197 30.4301 22.2389 29.211 22.2389 27.7071C22.2389 26.2032 21.0197 24.984 19.5158 24.984C18.0119 24.984 16.7927 26.2032 16.7927 27.7071C16.7927 29.211 18.0119 30.4301 19.5158 30.4301Z" fill="#171A1F"/>
</svg>
